<svg width="464" height="360" fill="none" xmlns="http://www.w3.org/2000/svg"><path d="M212.008 28.335c5.7-4.4 19.6-14.2 39.7-19.7 8.7-2.4 47.1-12.9 83.1 8.9 3.3 2 25.8 16 37.9 42.7 3.8 8.3 6.7 22.6 12.6 51.1 6.3 30.5 4.7 28 6.6 33.1 11.2 29.7 34.5 29.9 53.6 56.6 1.3 1.9 24.8 35.6 16.2 73.4-9.8 43.8-55.8 63.8-66.2 68-29.9 11.9-57.8 7.7-113.7-.6-50.5-7.5-42.3-12.7-66.2-13.2-58.6-1.3-76.8 30.4-141.4 27.7-24-1-39.1-6.1-48.7-17.5-7.1-8.4-12.6-21.5-11.3-34.9 1.5-16.2 11.4-18.9 11.9-32.5.6-15.6-12.2-18.6-20.5-37.9-10.6-24.7-5.7-57.1 10.7-77.1 3.4-4.1 10.6-11.8 29.6-20.4 54.2-24.4 78.2 1.1 107.7-18.1 31.5-20.3 15.9-56.8 58.4-89.6z" fill="#E7EEEF"/><path d="M211.643 338.295h-73.331v-34.324l73.146.456c.369 11.287.185 33.868.185 33.868z" fill="#39424E"/><path d="M141.182 303.988l-2.87-.019v33.835c2.189.165 4.379.327 6.566.491h.011c-8.06-16.639-7.063-26.63-4.417-32.774.216-.499.458-1.008.71-1.533z" fill="#39424E"/><path d="M193.242 335.564h-36.618c0-5.13 8.833-14.386 24.657-14.386 11.961 0 11.961 9.256 11.961 14.386z" fill="#1BA94C"/><path d="M167.88 184.895c1.101 4.92 1.087 19.302-2.251 24.707-6.6 10.682-12.316 14.521-20.045 17.617-11.371 4.555-18.374 6.229-23.592 15.037-10.188 17.2-37.219 82.031-30.873 90.214 6.073 7.83 27.611 1.879 41.585-1.274 15.029-3.392 22.68-4.73 29.446-7.58.449.767 1.337 2.293 4.441 3.575 3.241 1.339 6.727 1.051 7.582 1.235 1.035.222 4.067.735 4.287 1.194 0 0-.066 2.122-.767 2.852-1.007 1.047-.736 2.731.154 2.853.303.041 1.082-.95 1.818-2.197.847-1.437 1.636-3.226 1.585-4.237-.061-1.213-3.881-2.934-3.926-3.246 2.136.748 5.091 2.094 4.968 3.005-.025.19.092 2.609-.521 3.642-.789 1.327-.732 2.921.49 2.852.271-.014 1.392-1.105 1.962-2.548.574-1.453.996-3.985.837-4.932-.154-.911-3.23-3.233-4.148-4.204 1.363.588 5.056 3.457 5.152 4.187.121.909-.246 3.975-.246 3.975-.777 1.672-1.152 3.397 0 3.399.363 0 1.733-1.579 2.393-3.582.395-1.201.51-2.962.49-4.248-.019-1.094-2.688-4.815-4.535-5.803 2.357 1.341 5.297 4.539 5.455 5.498.187 1.131.613 2.853-.061 4.249-.861 1.782-1.075 3.606.246 3.642.545.014 1.546-1.893 2.516-3.581.59-1.029.215-3.865.184-5.16.029-1.885-5.134-7.328-6.054-8.142-3.697-3.269-12.384-1.818-27.012-2.634-11.904-.663-11.213-1.213-22.135-.454-10.489.728-17.69.513-23 1.82 4.556-3.857 7.525-12.697 13.009-21.82 5.665-9.422 10.243-17.792 11.459-23.694.613 21.128.461 15.982 1.074 37.11 22.988 1.079 46.793-.676 69.781.406-.341-23.086.664-17.062-1.485-42.578 10.846 31.489 24.044 65.207 27.42 68.853 5.423 5.856 44.417 2.78 47.987 1.317 2.456-5.602 2.353-8.37 4.807-13.974-13.628-1.355-19.299-4.104-34.026-2.524-1.468-6.087-6.936-18.041-9.753-30.956-7.264-33.311-13.519-47.522-17.816-51.067-8.679-7.158-17.7-8.81-28.241-17.214-4.898-3.906-5.757-8.156-6.548-10.936-2.829-9.946 1.835-18.837 3.479-21.667-9.189-.997-18.38-1.991-27.572-2.987z" fill="#fff"/><path d="M160.36 189.153c1.007 1.824 2.681 2.626 3.335 2.898-.131 8.057-1.635 15.407-1.74 23.465-.026 1.953-9.659 7.733-9.686 9.686.602.853 11.426 12.108 26.637 12.108s21.136-13.482 22.601-14.53c-2.422-2.53-3.229-2.421-5.65-4.843l-5.65-5.65c1.517-.453 3.295-1.147 5.676-2.945 8.383-6.389 8.933-18.339 9.469-29.979.249-5.264.196-12.985-1.36-22.336-3.362-1.345-11.693-4.164-21.398-1.552-4.067 1.125-12.268 3.35-15.982 10.98-2.747 5.665-1.544 11.33-.955 13.477-.68 0-2.707.078-4.29 1.552-2.171 1.953-2.289 5.354-1.007 7.669z" fill="#fff" stroke="#39424E" stroke-width=".993" stroke-miterlimit="10" stroke-linecap="round"/><path d="M207.301 151.233c.3.608 1.412 3.117.588 5.781-1.569 5.044-8.881 6.712-14.021 7.889-4.944 1.126-13.288 2.302-24.144.194-.392 5.458-.785 10.916-1.164 16.361-.484-.31-1.936-1.151-3.897-.957-2.865.272-4.408 2.509-4.604 2.819-.183-3.129-.38-7.773-.262-13.411.183-8.95.314-13.477 2.145-16.555 4.002-6.725 12.844-8.187 18.115-9.053 9.22-1.527 23.594-.621 27.244 6.932z" fill="#39424E"/><path d="M199.169 178.729c0 .768.62 1.388 1.383 1.388s1.383-.62 1.383-1.388c0-.768-.62-1.388-1.383-1.388s-1.383.62-1.383 1.388z" stroke="#576871"/><path d="M179.236 178.729c0 .768.62 1.388 1.383 1.388s1.384-.62 1.384-1.388c0-.768-.621-1.388-1.384-1.388-.763 0-1.383.62-1.383 1.388z" stroke="#39424E"/><path d="M193.28 187.045c.117.194 1.451 2.406.392 4.618-.523 1.086-1.386 1.668-1.818 1.927M191.919 200.133c-.628.285-3.139 1.346-6.042.388a8.053 8.053 0 0 1-3.309-2.121" stroke="#39424E" stroke-width=".993" stroke-miterlimit="10" stroke-linecap="round"/><path d="M189.513 212.265c-.929.103-2.21.155-3.701-.13a12.35 12.35 0 0 1-4.997-2.185" stroke="#576871" stroke-width=".993" stroke-miterlimit="10" stroke-linecap="round"/><path d="M202.239 174.15c-.732.026-1.465.039-2.21.066M181.914 174.655c-.733.026-1.465.039-2.211.065" stroke="#39424E" stroke-width=".993" stroke-miterlimit="10" stroke-linecap="round"/><path opacity=".3" d="M189.218 212.566a26.577 26.577 0 0 1-3.702-.129 28.27 28.27 0 0 1-4.996-.957c.536.996 1.857 3.117 4.473 4.617a11.806 11.806 0 0 0 4.473 1.475 644.934 644.934 0 0 0-.248-5.006z" fill="#B7C9CC"/><path d="M167.187 182.945c-.249-.168-1.02-.633-2.014-.517-1.164.142-2.158 1.061-2.538 2.315M189.971 191.856c-.105.09-.222.167-.326.258" stroke="#39424E" stroke-width=".993" stroke-miterlimit="10" stroke-linecap="round"/><path d="M283.55 336.218a45.13 45.13 0 0 0 .662-1.595c-12.722-.205-32.751-1.422-42.908-4.458-4.189-1.252-13.353-15.302-19.186-25.737 6.206 16.085 11.483 28.357 13.445 30.475 5.423 5.856 44.417 2.78 47.987 1.315z" fill="#B3B3B3"/><path d="M113.569 291.86a52.254 52.254 0 0 0 12.663 4.796c.35-.614.709-1.231 1.082-1.85a324.185 324.185 0 0 0 3.254-5.523 47.323 47.323 0 0 1-14.421-4.888 46.724 46.724 0 0 1-10.358-7.495 488.014 488.014 0 0 0-2.93 7.309 51.628 51.628 0 0 0 10.71 7.651z" fill="#B7C9CC"/><path d="M153.313 223.212c.806 1.033 9.017 12.383 25.762 11.289 16.525-1.077 20.113-12.308 20.832-13.458 5.113 1.986 21.122 9.27 26.295 13.973 4.752 4.32 15.508 40.249 15.092 43.591-1.485 2.784-7.51 4.326-13.505 5.872a47.133 47.133 0 0 1-14.326 1.418c-1.16-2.904-1.396-6.61-2.556-9.512 1.107 9.94.184 19.302.713 33.864-24.418-.203-48.839-.102-73.257-.305-.273-19.305-.138-22.087.561-34.123-1.568 4.456-5.117 12.216-7.879 15.694-3.817-.081-9.027-1.378-15.551-3.948-8.129-3.204-9.923-6.962-12.789-9.924 1.181-6.694 14.841-33.508 21.076-39.792 5.577-5.62 20.425-11.399 29.532-14.639z" fill="#39424E"/><path d="M366.564 303.918h-148.84c-3.145 0-5.694-2.522-5.694-5.634V194.528c0-3.112 2.549-5.634 5.694-5.634h148.838c3.145 0 5.694 2.522 5.694 5.634v103.756c.002 3.112-2.549 5.634-5.692 5.634z" fill="#0E141E"/><path d="M285.688 335.564h-84.175l2.87-5.399h84.175l-2.87 5.399z" fill="#738F93"/><path d="M212.235 298.862V193.95c0-2.794 2.288-5.056 5.109-5.056h-2.759c-2.823 0-5.109 2.264-5.109 5.056v104.91c0 2.794 2.288 5.056 5.109 5.056h2.759c-2.821.002-5.109-2.262-5.109-5.054z" fill="#B7C9CC"/><path d="M272.326 249.232c.037.018 35.552-.165 35.443-.122-.051.051 6.475 28.787 10.721 51.012 4.687 24.535 4.291 38.224-16.831 38.224 0 0-57.581.404-64.203.86 13.966-.961 42.481-.545 47.235-14.385 3.129-9.106-6.583-39.794-12.365-75.589z" fill="#39424E"/><path d="M390.679 335.564H64.439v8.195h326.24v-8.195z" fill="#576871"/><path d="M177.998 239.941c-10.37 0-23.235-4.399-29.827-14.802l.347-.215c7.18 11.33 21.909 15.445 32.56 14.473 13.63-1.242 20.554-12.969 21.905-16.979l.389.128c-.608 1.806-2.626 5.86-6.327 9.593-4.428 4.466-9.937 7.116-15.928 7.664-1.007.091-2.05.138-3.119.138z" fill="#fff"/><path d="M123.783 237.851c-6.235 6.284-19.896 33.099-21.076 39.792 1.627 1.682 2.911 3.62 5.203 5.568.047-8.207 2.344-13.473 4.556-16.843 3.766-5.736 6.628-4.754 10.671-12.017 3.437-6.168 2.514-12.302 4.784-16.388 2.023-3.642 4.022-4.582 5.605-6.538-4.053 2.062-7.59 4.255-9.743 6.426z" fill="#2C333D"/><path d="M138.962 276.04a.168.168 0 0 1-.062-.01.201.201 0 0 1-.133-.255c.348-1.088 1.658-5.872 2.015-8.524a.205.205 0 0 1 .23-.175c.113.015.19.118.176.228-.361 2.676-1.681 7.497-2.032 8.592a.205.205 0 0 1-.194.144z" fill="#fff"/><path d="M142.641 293.136c.29-7.192-1.115-11.981-3.807-15.726-.619 10.733-.732 14.107-.469 32.534.242.002.484.004.725.004.341-1.665 3.33-11.338 3.551-16.812z" fill="#39424E"/><path d="M108.53 318.602c-.915 0-1.835-.108-2.737-.323a.202.202 0 0 1-.152-.245.205.205 0 0 1 .248-.151c1.741.416 3.553.416 5.238 0a10.805 10.805 0 0 0 2.709-1.071.205.205 0 0 1 .278.077.201.201 0 0 1-.077.276 11.29 11.29 0 0 1-2.811 1.114c-.876.215-1.782.323-2.696.323z" fill="#B3B3B3"/><path d="M95.535 332.831c-1.872-.386-3.625-1.652-5.328-3.457.1 1.371.393 2.422.914 3.092 6.073 7.829 27.611 1.879 41.585-1.274 14.305-3.228 21.928-4.598 28.464-7.181l.057-.024c-21.255 3.007-56.859 10.666-65.692 8.844z" fill="#B7C9CC"/><path d="M375.895 335.564h-21.323l-5.74-25.616h31.977l-4.914 25.616z" fill="#39424E"/><path d="M366.011 309.894c1.927-7.103-10.326-11.24-6.401-18.214 2.339-4.159 7.216-2.828 11.393-8.128 4.305-5.462 1.695-10.593 4.697-14.016 3.914-4.46 9.058-.254 13.099-2.269 3.867-1.927 3.063-6.119 8.638-9.152 5.214-2.837 12.43-1.725 14.315 1.412 2.614 4.352-.119 13.06-3.121 16.159-5.298 5.466-10.667 4.548-11.924 8.655-1.679 5.482 2.559 9.208-1.023 14.491-3.242 4.78-21.86 1.601-25.415 10.973l-4.258.089z" fill="#1BA94C"/><path opacity=".5" d="M368.427 309.835l-.527-.065c.011-.081 1.112-8.29 7.035-18.563 3.477-6.028 7.912-11.583 13.181-16.509 6.585-6.156 14.497-11.34 23.52-15.41l.22.476c-20.308 9.163-31.037 22.299-36.462 31.703-5.868 10.181-6.956 18.287-6.967 18.368z" fill="#fff"/><path opacity=".5" d="M399.101 257.227l-2.484 10.566.517.12 2.485-10.567-.518-.119zM383.358 279.759l-.046.524 16.019 1.384.046-.523-16.019-1.385zM370.799 284.435l-.526.074 1.785 12.389.526-.074-1.785-12.389zM397.083 294.36l-25.641 5.134.106.515 25.64-5.134-.105-.515z" fill="#fff"/><path d="M366.784 274.504c-3.137-4.062-6.208-4.328-10.522-11.551-1.64-2.745-.886-9.818-2.479-14.846-1.705-5.389-7.793-8.584-12.078-7.748-4.637.905-6.696 8.548-5.986 15.085.813 7.501 6.245 9.218 9.111 18.099 1.894 5.867.615 11.204.916 14.75.857 10.031 9.526 16.636 13.958 21.653h3.99c13.388-16.99 6.264-31.335 3.09-35.442z" fill="#068932"/><path opacity=".5" d="M362.253 309.948h.381c-.584-12.46-2.708-19.683-4.424-25.709-1.124-3.94-2.317-7.053-5.204-14.574-.953-2.483-2.034-5.3-3.362-8.798-1.089-2.862-2.01-5.384-2.901-7.823-1.497-4.095-2.912-7.964-4.862-12.756l-.352.14c1.948 4.786 3.36 8.651 4.857 12.744.892 2.438 1.814 4.962 2.903 7.827 1.329 3.498 2.409 6.314 3.362 8.798 2.883 7.509 4.076 10.618 5.194 14.542 1.71 6.009 3.825 13.194 4.408 25.609z" fill="#fff"/><path opacity=".5" d="M352.425 246.017l-3.685 13.368.368.099 3.685-13.368-.368-.099zM344.233 270.633l-.207.316 12.015 7.709.207-.317-12.015-7.708zM367.319 275.972l-6.709 19.514.361.121 6.709-19.513-.361-.122z" fill="#fff"/><path d="M230.028 290.679c1.363 0 2.468-1.093 2.468-2.443 0-1.349-1.105-2.443-2.468-2.443-1.364 0-2.469 1.094-2.469 2.443 0 1.35 1.105 2.443 2.469 2.443zM238.229 290.679c1.363 0 2.468-1.093 2.468-2.443 0-1.349-1.105-2.443-2.468-2.443-1.364 0-2.469 1.094-2.469 2.443 0 1.35 1.105 2.443 2.469 2.443z" fill="#fff"/><path d="M258.731 290.679c1.364 0 2.469-1.093 2.469-2.443 0-1.349-1.105-2.443-2.469-2.443-1.363 0-2.468 1.094-2.468 2.443 0 1.35 1.105 2.443 2.468 2.443z" fill="#576871"/><path d="M338.691 290.679c1.363 0 2.469-1.093 2.469-2.443 0-1.349-1.106-2.443-2.469-2.443-1.363 0-2.468 1.094-2.468 2.443 0 1.35 1.105 2.443 2.468 2.443z" fill="#B7C9CC"/><path d="M236.507 343.857a.405.405 0 0 1-.078-.803c18.975-3.657 30.692-14.779 31.342-29.749.531-12.249-6.417-21.424-9.431-24.798a.405.405 0 0 1 .035-.573.414.414 0 0 1 .578.035c3.077 3.449 10.179 12.825 9.636 25.37-.666 15.372-12.632 26.779-32.005 30.512a.48.48 0 0 1-.077.006z" fill="#fff"/><path d="M261.99 293.565c-.333 0-.659-.16-.855-.454a38.633 38.633 0 0 0-3.256-4.202 1.009 1.009 0 0 1 .09-1.433 1.033 1.033 0 0 1 1.447.09 40.195 40.195 0 0 1 3.426 4.423 1.007 1.007 0 0 1-.287 1.406c-.174.116-.371.17-.565.17z" fill="#fff"/><path d="M271.117 251.425h1.47c-.088-.528-.174-1.055-.258-1.585l.1.002c-.033-.203-.068-.406-.1-.611.036.019 35.551-.164 35.442-.121-.008.008.171.838.497 2.315h.426c1.23 0 2.229-.988 2.229-2.206 0-1.217-.999-2.205-2.229-2.205h-37.573c-1.23 0-2.229.988-2.229 2.205-.004 1.22.995 2.206 2.225 2.206z" fill="#B7C9CC"/><path d="M351.737 120.913H339.06a1.02 1.02 0 0 1-1.025-1.015c0-.56.459-1.014 1.025-1.014h12.677a1.02 1.02 0 0 1 1.025 1.014 1.02 1.02 0 0 1-1.025 1.015z" fill="#F4C7AB"/><path d="M331.241 120.913h-11.597a1.02 1.02 0 0 1-1.025-1.015c0-.56.459-1.014 1.025-1.014h11.597a1.02 1.02 0 0 1 1.025 1.014c0 .56-.46 1.015-1.025 1.015zM310.744 120.913h-13.755a1.02 1.02 0 0 1-1.025-1.015c0-.56.459-1.014 1.025-1.014h13.755a1.02 1.02 0 0 1 1.025 1.014 1.02 1.02 0 0 1-1.025 1.015z" fill="#4E62BD"/><path d="M289.977 120.913h-11.596a1.021 1.021 0 0 1-1.026-1.015c0-.56.46-1.014 1.026-1.014h11.596a1.02 1.02 0 0 1 1.025 1.014 1.02 1.02 0 0 1-1.025 1.015z" fill="#F99595"/><path d="M272.987 120.913h-8.361a1.02 1.02 0 0 1-1.025-1.015c0-.56.459-1.014 1.025-1.014h8.361a1.02 1.02 0 0 1 1.025 1.014 1.02 1.02 0 0 1-1.025 1.015zM257.884 120.913h-10.438a1.02 1.02 0 0 1-1.025-1.015c0-.56.459-1.014 1.025-1.014h10.438a1.02 1.02 0 0 1 1.025 1.014c0 .56-.46 1.015-1.025 1.015z" fill="#4E62BD"/><path d="M320.991 130.255h-10.249a1.02 1.02 0 0 1-1.025-1.015c0-.56.459-1.014 1.025-1.014h10.249a1.02 1.02 0 0 1 1.026 1.014c0 .56-.46 1.015-1.026 1.015z" fill="#F4C7AB"/><path d="M344.28 130.255h-17.741a1.02 1.02 0 0 1-1.025-1.015c0-.56.459-1.014 1.025-1.014h17.741a1.02 1.02 0 0 1 1.025 1.014 1.02 1.02 0 0 1-1.025 1.015z" fill="#4E62BD"/><path d="M303.866 130.255h-25.485a1.02 1.02 0 0 1-1.025-1.015c0-.56.459-1.014 1.025-1.014h25.487a1.02 1.02 0 0 1 1.025 1.014 1.022 1.022 0 0 1-1.027 1.015z" fill="#F99595"/><path d="M272.987 130.255h-14.754a1.02 1.02 0 0 1-1.025-1.015c0-.56.459-1.014 1.025-1.014h14.754a1.02 1.02 0 0 1 1.025 1.014 1.02 1.02 0 0 1-1.025 1.015z" fill="#4E62BD"/><path d="M252.839 130.255h-5.394a1.02 1.02 0 0 1-1.025-1.015c0-.56.459-1.014 1.025-1.014h5.394a1.02 1.02 0 0 1 1.025 1.014 1.02 1.02 0 0 1-1.025 1.015z" fill="#F4C7AB"/><path d="M332.358 139.595h-14.02a1.02 1.02 0 0 1-1.025-1.014c0-.56.459-1.015 1.025-1.015h14.02a1.02 1.02 0 0 1 1.025 1.015 1.02 1.02 0 0 1-1.025 1.014zM311.866 139.595h-24.002a1.02 1.02 0 0 1-1.026-1.014c0-.56.46-1.015 1.026-1.015h24.002a1.02 1.02 0 0 1 1.025 1.015 1.02 1.02 0 0 1-1.025 1.014z" fill="#4E62BD"/><path d="M355.557 139.595h-16.495a1.02 1.02 0 0 1-1.025-1.014c0-.56.459-1.015 1.025-1.015h16.495c.565 0 1.025.455 1.025 1.015 0 .56-.46 1.014-1.025 1.014zM278.381 139.595h-14.754a1.02 1.02 0 0 1-1.025-1.014c0-.56.459-1.015 1.025-1.015h14.754a1.02 1.02 0 0 1 1.025 1.015 1.02 1.02 0 0 1-1.025 1.014z" fill="#F99595"/><path d="M258.233 139.595h-5.394a1.02 1.02 0 0 1-1.025-1.014c0-.56.459-1.015 1.025-1.015h5.394a1.02 1.02 0 0 1 1.025 1.015 1.02 1.02 0 0 1-1.025 1.014z" fill="#F4C7AB"/><path d="M336.997 149h-10.095a1.02 1.02 0 0 1-1.025-1.014c0-.56.459-1.015 1.025-1.015h10.095a1.02 1.02 0 0 1 1.025 1.015c0 .56-.457 1.014-1.025 1.014zM321.67 149h-16.277a1.02 1.02 0 0 1-1.025-1.014c0-.56.459-1.015 1.025-1.015h16.277a1.02 1.02 0 0 1 1.025 1.015A1.02 1.02 0 0 1 321.67 149z" fill="#4E62BD"/><path d="M299.866 149h-21.485a1.02 1.02 0 0 1-1.025-1.014c0-.56.459-1.015 1.025-1.015h21.485a1.02 1.02 0 0 1 1.025 1.015 1.02 1.02 0 0 1-1.025 1.014z" fill="#F4C7AB"/><path d="M272.987 149h-8.995a1.02 1.02 0 0 1-1.025-1.014c0-.56.459-1.015 1.025-1.015h8.995a1.02 1.02 0 0 1 1.025 1.015 1.02 1.02 0 0 1-1.025 1.014z" fill="#4E62BD"/><path d="M258.598 149h-5.394a1.02 1.02 0 0 1-1.025-1.014c0-.56.459-1.015 1.025-1.015h5.394a1.02 1.02 0 0 1 1.025 1.015 1.02 1.02 0 0 1-1.025 1.014zM355.557 158.276h-21.37a1.02 1.02 0 0 1-1.025-1.014c0-.56.459-1.015 1.025-1.015h21.37a1.02 1.02 0 0 1 1.025 1.015c0 .562-.459 1.014-1.025 1.014z" fill="#F4C7AB"/><path d="M328.953 158.276h-19.244a1.02 1.02 0 0 1-1.025-1.014c0-.56.459-1.015 1.025-1.015h19.244a1.02 1.02 0 0 1 1.025 1.015c0 .562-.459 1.014-1.025 1.014z" fill="#4E62BD"/><path d="M304.163 158.276H291.42a1.02 1.02 0 0 1-1.025-1.014c0-.56.46-1.015 1.025-1.015h12.743a1.02 1.02 0 0 1 1.025 1.015c0 .562-.459 1.014-1.025 1.014zM286.027 158.276h-14.754a1.02 1.02 0 0 1-1.025-1.014c0-.56.459-1.015 1.025-1.015h14.754c.565 0 1.025.455 1.025 1.015 0 .562-.46 1.014-1.025 1.014z" fill="#F99595"/><path d="M265.881 158.276h-5.394a1.02 1.02 0 0 1-1.026-1.014c0-.56.46-1.015 1.026-1.015h5.394a1.02 1.02 0 0 1 1.025 1.015c0 .562-.459 1.014-1.025 1.014zM347.309 167.618h-14.951a1.02 1.02 0 0 1-1.025-1.015c0-.56.459-1.014 1.025-1.014h14.951a1.02 1.02 0 0 1 1.025 1.014c0 .562-.458 1.015-1.025 1.015z" fill="#4E62BD"/><path d="M327.124 167.618h-20.382a1.02 1.02 0 0 1-1.025-1.015c0-.56.459-1.014 1.025-1.014h20.382a1.02 1.02 0 0 1 1.025 1.014 1.02 1.02 0 0 1-1.025 1.015z" fill="#F99595"/><path d="M302.336 167.618h-20.135a1.02 1.02 0 0 1-1.025-1.015c0-.56.459-1.014 1.025-1.014h20.135a1.02 1.02 0 0 1 1.025 1.014 1.02 1.02 0 0 1-1.025 1.015z" fill="#F4C7AB"/><path d="M278.316 167.618h-8.872a1.02 1.02 0 0 1-1.025-1.015c0-.56.459-1.014 1.025-1.014h8.872a1.02 1.02 0 0 1 1.025 1.014c0 .562-.457 1.015-1.025 1.015z" fill="#4E62BD"/><path d="M264.052 167.618h-5.394a1.02 1.02 0 0 1-1.025-1.015c0-.56.459-1.014 1.025-1.014h5.394a1.02 1.02 0 0 1 1.025 1.014 1.02 1.02 0 0 1-1.025 1.015z" fill="#F4C7AB"/><path d="M238.339 120.913h-2.243a1.02 1.02 0 0 1-1.025-1.014c0-.56.459-1.015 1.025-1.015h2.243a1.02 1.02 0 0 1 1.025 1.015 1.02 1.02 0 0 1-1.025 1.014zM238.339 130.255h-2.243a1.02 1.02 0 0 1-1.025-1.015c0-.56.459-1.014 1.025-1.014h2.243a1.02 1.02 0 0 1 1.025 1.014 1.02 1.02 0 0 1-1.025 1.015zM243.734 139.595h-2.243a1.02 1.02 0 0 1-1.025-1.014c0-.56.459-1.015 1.025-1.015h2.243a1.02 1.02 0 0 1 1.025 1.015 1.02 1.02 0 0 1-1.025 1.014zM243.734 148.935h-2.243a1.02 1.02 0 0 1-1.025-1.015c0-.56.459-1.014 1.025-1.014h2.243a1.02 1.02 0 0 1 1.025 1.014 1.02 1.02 0 0 1-1.025 1.015zM249.128 158.277h-2.243a1.02 1.02 0 0 1-1.025-1.015c0-.56.459-1.014 1.025-1.014h2.243a1.02 1.02 0 0 1 1.025 1.014 1.02 1.02 0 0 1-1.025 1.015zM249.128 167.618h-2.243a1.02 1.02 0 0 1-1.025-1.015c0-.56.459-1.014 1.025-1.014h2.243a1.02 1.02 0 0 1 1.025 1.014 1.02 1.02 0 0 1-1.025 1.015z" fill="#4E62BD"/></svg>